#!OML:ASF X:\für Bonn\!DataBase\2005_08_11_Bastian_Final\c3d\Bastian.ASF
:FULLY-SPECIFIED
:DEGREES
154
root -22.1243 17.6609 0.784565 136.898 -75.4595 -141.508
lowerback 7.09442 5.8815 5.6084
upperback 4.19145 7.98325 -3.04486
thorax 1.6343 4.11936 -6.66221
lowerneck -11.7619 -10.6771 -0.620851
upperneck -14.3681 -14.0697 15.2528
head -1.43308 -7.61577 4.73283
rclavicle -1.02573e-013 2.70347e-014
rhumerus 60.5122 -6.88393 -31.4776
rradius 35.0557
rwrist -7.70294
rhand -14.8471 -5.01536
rfingers 7.12502
rthumb 11.3122 -34.6903
lclavicle -1.02573e-013 2.70347e-014
lhumerus -21.7237 -17.5407 85.2251
lradius 8.71583
lwrist 12.1724
lhand -11.3857 -4.49909
lfingers 7.12502
lthumb 14.6489 24.9635
rfemur 1.37947 -6.35231 27.1562
rtibia 30.0075
rfoot -13.5906 -14.9041
rtoes -18.3456
lfemur -6.54453 -0.316538 -12.1062
ltibia 27.404
lfoot -6.44612 -14.0954
ltoes -10.2509
155
root -22.1261 17.6602 0.793265 137.834 -75.2597 -142.436
lowerback 7.13142 5.83492 5.51097
upperback 4.21939 7.91427 -3.03075
thorax 1.61583 4.08104 -6.59544
lowerneck -11.7748 -10.6096 -0.444982
upperneck -14.2776 -14.0095 15.18
head -1.42459 -7.58943 4.67608
rclavicle -8.15017e-014 1.59028e-014
rhumerus 60.6016 -6.97467 -32.0186
rradius 36.6274
rwrist -6.15906
rhand -15.5203 -4.22903
rfingers 7.12502
rthumb 10.6629 -33.9385
lclavicle -8.15017e-014 1.59028e-014
lhumerus -22.138 -17.3089 85.0898
lradius 8.70845
lwrist 12.052
lhand -11.1435 -4.59899
lfingers 7.12502
lthumb 14.8822 24.8465
rfemur 1.34038 -6.26028 27.048
rtibia 30.0235
rfoot -13.5686 -14.7449
rtoes -18.4902
lfemur -6.50238 -0.102385 -12.1798
ltibia 27.4012
lfoot -6.51795 -13.9946
ltoes -10.3563
156
root -22.1272 17.6593 0.80242 138.641 -75.0179 -143.228
lowerback 7.17853 5.77031 5.44455
upperback 4.22579 7.82483 -2.99906
thorax 1.56803 4.03178 -6.52951
lowerneck -11.7338 -10.5004 -0.238784
upperneck -14.193 -13.894 15.0921
head -1.43484 -7.53847 4.61686
rclavicle -7.51406e-014 6.04305e-014
rhumerus 60.6263 -6.96634 -32.4533
rradius 38.389
rwrist -4.63272
rhand -16.0625 -3.54168
rfingers 7.12502
rthumb 10.1399 -33.2773
lclavicle -7.51406e-014 6.04305e-014
lhumerus -22.5724 -17.0134 84.9752
lradius 8.6718
lwrist 11.8926
lhand -10.916 -4.65081
lfingers 7.12502
lthumb 15.1014 24.7783
rfemur 1.28683 -6.13911 26.9958
rtibia 30.0418
rfoot -13.558 -14.6041
rtoes -18.6203
lfemur -6.47773 0.11592 -12.1998
ltibia 27.411
lfoot -6.58557 -13.9162
ltoes -10.4742
157
root -22.1265 17.6582 0.811836 139.498 -74.7891 -144.065
lowerback 7.21141 5.69847 5.33204
upperback 4.24014 7.72198 -2.96577
thorax 1.52783 3.97494 -6.4339
lowerneck -11.6966 -10.371 0.00862657
upperneck -14.1216 -13.7563 14.9615
head -1.45686 -7.47844 4.53806
rclavicle 1.98785e-015 0
rhumerus 60.6329 -6.92395 -32.8777
rradius 40.2808
rwrist -3.04699
rhand -16.4609 -2.9859
rfingers 7.12502
rthumb 9.75549 -32.7399
lclavicle 1.98785e-015 0
lhumerus -22.9895 -16.6731 84.8824
lradius 8.62287
lwrist 11.7303
lhand -10.7055 -4.67736
lfingers 7.12502
lthumb 15.3041 24.7364
rfemur 1.20607 -6.05734 26.9121
rtibia 30.0819
rfoot -13.5227 -14.4422
rtoes -18.9302
lfemur -6.46249 0.336139 -12.2471
ltibia 27.417
lfoot -6.64553 -13.8164
ltoes -10.5551
158
root -22.1255 17.6567 0.820668 140.331 -74.5404 -144.884
lowerback 7.23934 5.60276 5.21815
upperback 4.25756 7.58707 -2.92555
thorax 1.48805 3.90197 -6.32861
lowerneck -11.6318 -10.2216 0.185088
upperneck -14.0576 -13.5812 14.9044
head -1.47701 -7.39953 4.50079
rclavicle 7.35503e-014 2.70347e-014
rhumerus 60.6515 -6.77908 -33.2578
rradius 42.2964
rwrist -1.53107
rhand -16.82 -2.56188
rfingers 7.12502
rthumb 9.40903 -32.3319
lclavicle 7.35503e-014 2.70347e-014
lhumerus -23.4043 -16.2404 84.7915
lradius 8.53628
lwrist 11.4734
lhand -10.5288 -4.66855
lfingers 7.12502
lthumb 15.4744 24.7321
rfemur 1.13644 -5.94818 26.8433
rtibia 30.1228
rfoot -13.5178 -14.284
rtoes -19.2385
lfemur -6.45005 0.549093 -12.279
ltibia 27.4422
lfoot -6.70853 -13.7076
ltoes -10.5498
159
root -22.1235 17.6551 0.830692 141.14 -74.2721 -145.678
lowerback 7.28661 5.49942 5.13425
upperback 4.26565 7.4449 -2.88439
thorax 1.43153 3.82551 -6.24114
lowerneck -11.5629 -10.0716 0.286032
upperneck -13.9768 -13.3969 14.8849
head -1.48389 -7.31209 4.48851
rclavicle -6.40087e-014 3.65764e-014
rhumerus 60.6056 -6.58564 -33.5626
rradius 44.4549
rwrist -0.0918713
rhand -17.0923 -2.28473
rfingers 7.12502
rthumb 9.14632 -32.0664
lclavicle -6.40087e-014 3.65764e-014
lhumerus -23.8209 -15.7652 84.7513
lradius 8.40758
lwrist 11.1534
lhand -10.4351 -4.63724
lfingers 7.12502
lthumb 15.5646 24.7564
rfemur 1.04112 -5.83192 26.7789
rtibia 30.1915
rfoot -13.5077 -14.1298
rtoes -19.5118
lfemur -6.43134 0.761834 -12.3049
ltibia 27.4583
lfoot -6.76845 -13.6033
ltoes -10.573
160
root -22.1204 17.6532 0.842327 142.053 -73.9658 -146.582
lowerback 7.33302 5.39854 5.07585
upperback 4.28078 7.30697 -2.8562
thorax 1.38946 3.75257 -6.18041
lowerneck -11.485 -9.91469 0.326097
upperneck -13.8989 -13.1952 14.9229
head -1.4855 -7.21502 4.50777
rclavicle 4.57205e-014 1.90833e-014
rhumerus 60.5064 -6.33086 -33.7595
rradius 46.7364
rwrist 1.14092
rhand -17.3705 -2.091
rfingers 7.12502
rthumb 8.87785 -31.8842
lclavicle 4.57205e-014 1.90833e-014
lhumerus -24.2157 -15.2567 84.6934
lradius 8.28733
lwrist 10.7557
lhand -10.3456 -4.57144
lfingers 7.12502
lthumb 15.6509 24.8155
rfemur 0.942385 -5.67092 26.6995
rtibia 30.2678
rfoot -13.513 -13.952
rtoes -19.667
lfemur -6.41079 0.960825 -12.3508
ltibia 27.4811
lfoot -6.83765 -13.4199
ltoes -10.6555
161
root -22.1155 17.6517 0.855057 143.058 -73.6505 -147.566
lowerback 7.39509 5.2933 5.01411
upperback 4.27602 7.16395 -2.85337
thorax 1.32067 3.6763 -6.14673
lowerneck -11.3798 -9.72585 0.401343
upperneck -13.8544 -12.9517 14.9328
head -1.51096 -7.10134 4.51758
rclavicle -4.69132e-014 6.83819e-014
rhumerus 60.3711 -6.01123 -33.9241
rradius 49.0878
rwrist 2.22214
rhand -17.6496 -1.97622
rfingers 7.12502
rthumb 8.60847 -31.7807
lclavicle -4.69132e-014 6.83819e-014
lhumerus -24.5801 -14.7264 84.6204
lradius 8.11429
lwrist 10.2783
lhand -10.2866 -4.47032
lfingers 7.12502
lthumb 15.7076 24.9122
rfemur 0.79987 -5.50114 26.594
rtibia 30.3648
rfoot -13.4829 -13.7723
rtoes -20.0212
lfemur -6.40561 1.16988 -12.4262
ltibia 27.5005
lfoot -6.91288 -13.2188
ltoes -10.7623
162
root -22.1093 17.6505 0.868632 144.047 -73.3018 -148.538
lowerback 7.47009 5.18549 4.96718
upperback 4.27233 7.01885 -2.83838
thorax 1.24623 3.59899 -6.10931
lowerneck -11.3053 -9.52145 0.420155
upperneck -13.7575 -12.6857 14.9468
head -1.5109 -6.9694 4.53415
rclavicle 6.36111e-015 -2.22639e-014
rhumerus 60.1938 -5.64174 -33.9665
rradius 51.5444
rwrist 3.05016
rhand -17.8818 -1.83874
rfingers 7.12502
rthumb 8.38441 -31.6523
lclavicle 6.36111e-015 -2.22639e-014
lhumerus -24.9761 -14.1531 84.5675
lradius 7.99192
lwrist 9.74744
lhand -10.2119 -4.39399
lfingers 7.12502
lthumb 15.7795 24.9828
rfemur 0.649583 -5.31981 26.4897
rtibia 30.4792
rfoot -13.4975 -13.5483
rtoes -20.1936
lfemur -6.39566 1.34863 -12.4927
ltibia 27.5158
lfoot -6.97848 -12.9726
ltoes -10.7184
163
root -22.1028 17.649 0.883398 144.995 -72.9279 -149.455
lowerback 7.51777 5.07599 4.94206
upperback 4.26771 6.87237 -2.82237
thorax 1.18862 3.5222 -6.07953
lowerneck -11.1837 -9.28318 0.421236
upperneck -13.7271 -12.3655 14.967
head -1.54394 -6.8156 4.56573
rclavicle -7.95139e-016 2.54444e-014
rhumerus 59.9478 -5.21181 -33.9512
rradius 54.1084
rwrist 3.64875
rhand -18.1317 -1.70084
rfingers 7.12502
rthumb 8.14324 -31.5239
lclavicle -7.95139e-016 2.54444e-014
lhumerus -25.3865 -13.5566 84.5218
lradius 7.88269
lwrist 9.18494
lhand -10.2022 -4.38836
lfingers 7.12502
lthumb 15.7889 24.9877
rfemur 0.468004 -5.12907 26.4018
rtibia 30.6119
rfoot -13.5018 -13.3248
rtoes -20.449
lfemur -6.39333 1.53389 -12.5465
ltibia 27.5255
lfoot -7.0851 -12.7073
ltoes -11.0455
164
root -22.0955 17.6475 0.898246 145.986 -72.5478 -150.426
lowerback 7.59201 4.97167 4.90212
upperback 4.24857 6.73263 -2.83089
thorax 1.10374 3.44767 -6.07055
lowerneck -11.0653 -9.01124 0.518822
upperneck -13.6748 -12.0129 14.8943
head -1.5847 -6.6465 4.54813
rclavicle 1.43125e-014 -4.77083e-015
rhumerus 59.6166 -4.7411 -33.9248
rradius 56.7562
rwrist 4.05146
rhand -18.3132 -1.47874
rfingers 7.12502
rthumb 7.9681 -31.3085
lclavicle 1.43125e-014 -4.77083e-015
lhumerus -25.6534 -12.9832 84.4333
lradius 7.53092
lwrist 8.53347
lhand -10.2217 -4.48725
lfingers 7.12502
lthumb 15.7701 24.8903
rfemur 0.285814 -4.91231 26.287
rtibia 30.7542
rfoot -13.5402 -13.0979
rtoes -20.5785
lfemur -6.37891 1.71584 -12.6238
ltibia 27.537
lfoot -7.16265 -12.4302
ltoes -11.0598
165
root -22.087 17.6465 0.912502 146.944 -72.1464 -151.364
lowerback 7.67044 4.87751 4.83883
upperback 4.22808 6.60505 -2.82789
thorax 1.01271 3.3783 -6.037
lowerneck -10.9428 -8.72578 0.612533
upperneck -13.6337 -11.6405 14.8093
head -1.63156 -6.46776 4.52791
rclavicle -4.81059e-014 2.8625e-014
rhumerus 59.2424 -4.2427 -33.8851
rradius 59.4178
rwrist 4.3367
rhand -18.3893 -1.0935
rfingers 7.12502
rthumb 7.89465 -30.9261
lclavicle -4.81059e-014 2.8625e-014
lhumerus -25.8504 -12.4164 84.3458
lradius 7.12293
lwrist 7.83904
lhand -10.2344 -4.60838
lfingers 7.12502
lthumb 15.7579 24.7702
rfemur 0.0919421 -4.64213 26.1977
rtibia 30.9073
rfoot -13.5815 -12.9072
rtoes -20.791
lfemur -6.37673 1.95888 -12.6848
ltibia 27.5475
lfoot -7.23333 -12.1906
ltoes -11.1178
166
root -22.0784 17.6449 0.926732 147.827 -71.7577 -152.239
lowerback 7.74139 4.77701 4.75686
upperback 4.21745 6.46711 -2.81878
thorax 0.931946 3.3037 -5.98447
lowerneck -10.8231 -8.43627 0.742429
upperneck -13.5924 -11.2672 14.6745
head -1.68289 -6.2889 4.48278
rclavicle 3.06128e-014 -3.33958e-014
rhumerus 58.8493 -3.70959 -33.8105
rradius 62.119
rwrist 4.41055
rhand -18.3127 -0.628613
rfingers 7.12502
rthumb 7.96854 -30.4584
lclavicle 3.06128e-014 -3.33958e-014
lhumerus -26.0465 -11.8354 84.2712
lradius 6.74975
lwrist 7.12247
lhand -10.2678 -4.73385
lfingers 7.12502
lthumb 15.7257 24.6472
rfemur -0.0951999 -4.40033 26.0959
rtibia 31.0699
rfoot -13.634 -12.6896
rtoes -20.8764
lfemur -6.35625 2.14383 -12.7522
ltibia 27.5547
lfoot -7.32564 -11.9357
ltoes -11.4299
167
root -22.0698 17.6443 0.940468 148.682 -71.3729 -153.06
lowerback 7.77511 4.6844 4.65545
upperback 4.2023 6.33768 -2.80886
thorax 0.86618 3.23361 -5.91675
lowerneck -10.6748 -8.14669 0.851233
upperneck -13.5889 -10.8864 14.5854
head -1.74736 -6.10962 4.46044
rclavicle -8.07066e-014 6.36111e-014
rhumerus 58.3744 -3.14288 -33.7005
rradius 64.8737
rwrist 4.36038
rhand -18.0854 -0.0346646
rfingers 7.12502
rthumb 8.18789 -29.856
lclavicle -8.07066e-014 6.36111e-014
lhumerus -26.2227 -11.2788 84.1957
lradius 6.41113
lwrist 6.37557
lhand -10.2574 -4.79811
lfingers 7.12502
lthumb 15.7358 24.5822
rfemur -0.313169 -4.12206 26.0059
rtibia 31.2366
rfoot -13.7078 -12.4919
rtoes -20.7715
lfemur -6.3745 2.36856 -12.8077
ltibia 27.5684
lfoot -7.37037 -11.7429
ltoes -11.253
168
root -22.0607 17.643 0.953629 149.447 -70.9838 -153.804
lowerback 7.8153 4.59362 4.55777
upperback 4.18755 6.211 -2.79715
thorax 0.798411 3.16497 -5.84956
lowerneck -10.5529 -7.85448 0.996487
upperneck -13.5436 -10.5102 14.4498
head -1.79707 -5.92949 4.41016
rclavicle -3.4191e-014 -1.27222e-014
rhumerus 57.8571 -2.52296 -33.5669
rradius 67.6395
rwrist 4.20482
rhand -17.7346 0.561375
rfingers 7.12502
rthumb 8.52647 -29.2465
lclavicle -3.4191e-014 -1.27222e-014
lhumerus -26.3794 -10.7405 84.1087
lradius 6.0494
lwrist 5.55178
lhand -10.27 -4.92804
lfingers 7.12502
lthumb 15.7237 24.4532
rfemur -0.516167 -3.85304 25.9279
rtibia 31.4028
rfoot -13.8165 -12.2455
rtoes -20.6023
lfemur -6.37943 2.57033 -12.8465
ltibia 27.5879
lfoot -7.4741 -11.5357
ltoes -11.3713
